<?xml version="1.0" standalone="no"?>
<!DOCTYPE svg PUBLIC "-//W3C//DTD SVG 1.1//EN" "http://www.w3.org/Graphics/SVG/1.1/DTD/svg11.dtd" >
<svg xmlns="http://www.w3.org/2000/svg">
<metadata></metadata>
<defs>
<font id="rounded_eleganceregular" horiz-adv-x="1143" >
<font-face units-per-em="2048" ascent="1638" descent="-410" />
<missing-glyph horiz-adv-x="500" />
<glyph horiz-adv-x="0" />
<glyph unicode="&#xd;" horiz-adv-x="512" />
<glyph unicode="!" horiz-adv-x="606" d="M179 180q0 52 36 88.5t88 36.5q51 0 87.5 -36.5t36.5 -88.5q0 -51 -36.5 -87.5t-87.5 -36.5q-52 0 -88 36.5t-36 87.5zM228 454v1150h147v-1150h-147z" />
<glyph unicode="&#x22;" horiz-adv-x="637" d="M48 1604h149l-22 -467h-105zM440 1604h149l-23 -467h-104z" />
<glyph unicode="#" horiz-adv-x="1484" d="M184 581v109h265l52 336h-256v111h271l71 471h108l-68 -471h335l68 471h113l-70 -471h226v-111h-243l-48 -336h233v-109h-249l-74 -498h-112l73 498h-336l-77 -498h-110l76 498h-248zM560 690h334l52 336h-337z" />
<glyph unicode="$" d="M72 311l108 82q140 -186 355 -207v624q-158 77 -201 106q-86 59 -127 130.5t-41 164.5q0 91 45.5 168.5t123.5 126t200 60.5v104h132v-110q99 -18 169 -64.5t134 -136.5l-108 -88q-78 120 -195 145v-504q264 -139 328 -225q83 -111 83 -245q0 -110 -61 -202.5 t-165 -144.5q-67 -33 -185 -48v-315h-132v315q-125 10 -199 39.5t-145.5 88t-118.5 136.5zM313 1215q0 -73 42 -124q57 -68 180 -123v458q-75 -6 -122 -33.5t-73.5 -74.5t-26.5 -103zM667 190q121 17 194.5 89t73.5 161q0 86 -56 159t-212 157v-566z" />
<glyph unicode="%" horiz-adv-x="1653" d="M94 1259q0 144 102 246t246 102t246.5 -102t102.5 -246q0 -145 -102.5 -247t-246.5 -102t-246 102t-102 247zM94 1259q0 144 102 246t246 102t246.5 -102t102.5 -246q0 -145 -102.5 -247t-246.5 -102t-246 102t-102 247zM178 -20l983 1505q82 120 111 146h119 l-1080 -1651h-133zM221 1259q0 -92 65 -156.5t156 -64.5q92 0 157 64.5t65 156.5q0 91 -65 156t-157 65q-91 0 -156 -65t-65 -156zM221 1259q0 -92 65 -156.5t156 -64.5q92 0 157 64.5t65 156.5q0 91 -65 156t-157 65q-91 0 -156 -65t-65 -156zM856 389q0 144 102 246 t246 102t246.5 -102t102.5 -246q0 -145 -102.5 -247t-246.5 -102t-246 102t-102 247zM856 389q0 144 102 246t246 102t246.5 -102t102.5 -246q0 -145 -102.5 -247t-246.5 -102t-246 102t-102 247zM856 389q0 144 102 246t246 102t246.5 -102t102.5 -246q0 -145 -102.5 -247 t-246.5 -102t-246 102t-102 247zM856 389q0 144 102 246t246 102t246.5 -102t102.5 -246q0 -145 -102.5 -247t-246.5 -102t-246 102t-102 247zM983 389q0 -92 65 -156.5t156 -64.5q92 0 157 64.5t65 156.5q0 91 -65 156t-157 65q-91 0 -156 -65t-65 -156zM983 389 q0 -92 65 -156.5t156 -64.5q92 0 157 64.5t65 156.5q0 91 -65 156t-157 65q-91 0 -156 -65t-65 -156zM983 389q0 -92 65 -156.5t156 -64.5q92 0 157 64.5t65 156.5q0 91 -65 156t-157 65q-91 0 -156 -65t-65 -156zM983 389q0 -92 65 -156.5t156 -64.5q92 0 157 64.5 t65 156.5q0 91 -65 156t-157 65q-91 0 -156 -65t-65 -156z" />
<glyph unicode="&#x26;" horiz-adv-x="1560" d="M134 389q0 112 70 223t286 281q-122 148 -157 218t-35 134q0 110 86 183q99 84 246 84q93 0 169.5 -37t116.5 -100t40 -134q0 -74 -52 -158t-206 -215l224 -236l154 -155q112 93 180 155l101 -107q-97 -85 -174 -149q50 -54 147 -151q77 -77 132 -142h-206l-191 199 q-191 -145 -307 -190.5t-245 -45.5q-171 0 -275 98.5t-104 244.5zM282 400q0 -85 72 -150t175 -65q79 0 155 33q118 51 280 166l-241 249q-61 63 -135 149q-189 -142 -247.5 -226.5t-58.5 -155.5zM446 1241q0 -39 20 -75q50 -86 140 -188q108 84 162 165q38 57 38 102 q0 51 -50 88.5t-132 37.5q-78 0 -128 -38.5t-50 -91.5z" />
<glyph unicode="'" horiz-adv-x="406" d="M129 1604h149l-23 -467h-104z" />
<glyph unicode="(" horiz-adv-x="759" d="M267 582q0 284 52 552.5t153 496.5h163q-99 -203 -158.5 -473t-59.5 -556q0 -267 45 -514t123 -434h-155q-74 180 -118.5 423t-44.5 505z" />
<glyph unicode=")" horiz-adv-x="759" d="M124 -346q100 203 158.5 472.5t58.5 557.5q0 266 -44.5 513t-123.5 434h156q76 -179 119.5 -422.5t43.5 -506.5q0 -282 -52.5 -550.5t-152.5 -497.5h-163z" />
<glyph unicode="*" horiz-adv-x="876" d="M88 1119l283 123l-283 126l66 113l248 -177l-31 300h131l-29 -300l249 177l66 -113l-280 -126l280 -123l-66 -114l-249 175l29 -300h-131l31 300l-248 -175z" />
<glyph unicode="+" horiz-adv-x="1249" d="M115 755v138h440v438h138v-438h442v-138h-442v-437h-138v437h-440z" />
<glyph unicode="," horiz-adv-x="570" d="M128 -47l168 403l137 -65l-205 -380z" />
<glyph unicode="-" horiz-adv-x="987" d="M199 712v124h554v-124h-554z" />
<glyph unicode="." horiz-adv-x="569" d="M187 180q0 52 36 88.5t88 36.5q51 0 87.5 -36.5t36.5 -88.5q0 -51 -36.5 -87.5t-87.5 -36.5q-52 0 -88 36.5t-36 87.5z" />
<glyph unicode="/" horiz-adv-x="901" d="M72 -118l614 1722h156l-615 -1722h-155z" />
<glyph unicode="0" d="M65 788q0 294 63 454t178 243t257 83q144 0 261 -83.5t185 -250t68 -446.5q0 -279 -67 -426.5t-185 -231.5t-262 -84q-142 0 -256 81.5t-178 243.5t-64 417zM205 785q0 -251 45 -361t133 -177t185 -67q98 0 184 65t130 195q55 158 55 345q0 223 -49 366t-136 209t-184 66 q-99 0 -186 -66t-132 -194.5t-45 -380.5z" />
<glyph unicode="1" horiz-adv-x="755" d="M132 1397l89 145h291v-1483h-147v1338h-233z" />
<glyph unicode="2" d="M61 63l566 592q173 185 224.5 274t51.5 188q0 125 -93 215t-228 90q-142 0 -236 -95t-107 -266h-143q6 221 147 362t347 141q205 0 331 -132t126 -312q0 -126 -60 -236.5t-235 -299.5l-368 -378h684v-143h-1007z" />
<glyph unicode="3" horiz-adv-x="1142" d="M72 480h145q39 -144 111 -208q91 -82 232 -82q162 0 260 96.5t98 227.5q5 70 -45 146t-134 104t-255 37v137q102 0 185 35t121 91t38 121q0 97 -77.5 168t-194.5 71q-96 0 -166 -54t-118 -184h-151q42 184 158.5 283t276.5 99q116 0 216 -53t155.5 -143t55.5 -187 q0 -192 -191 -304q107 -43 175 -127q97 -118 97 -228q0 -126 -66.5 -240.5t-181.5 -177t-257 -62.5q-192 0 -319.5 110.5t-167.5 323.5z" />
<glyph unicode="4" d="M52 408l1 145l689 1015l171 -1l-659 -1013h508l-1 345l148 1v-350h180v-142h-180v-345h-148v345h-709z" />
<glyph unicode="5" d="M83 442h152q17 -85 58 -138.5t109.5 -86.5t142.5 -33q146 0 250.5 111t104.5 277q0 151 -94.5 244.5t-253.5 93.5q-131 0 -317 -80l137 736h642v-141h-528l-73 -405q96 29 174 29q203 0 334.5 -135.5t131.5 -347.5q0 -146 -67.5 -268t-183 -187t-267.5 -65 q-180 0 -304 110.5t-148 285.5z" />
<glyph unicode="6" horiz-adv-x="1142" d="M138 500q0 91 36.5 191t131.5 241l450 640l122 -81l-400 -574q80 27 151 27q176 0 299 -127.5t123 -314.5q0 -127 -59.5 -230.5t-168.5 -164.5t-235 -61q-122 0 -226.5 59t-164 165.5t-59.5 229.5zM282 502q0 -130 91 -221t221 -91q128 0 219.5 91t91.5 221t-91.5 221 t-219.5 91q-130 0 -221 -91t-91 -221z" />
<glyph unicode="7" horiz-adv-x="1142" d="M147 1418v140h941l-793 -1512l-123 62l685 1310h-710z" />
<glyph unicode="8" d="M69 496q0 125 66.5 224t221.5 177q-108 56 -162.5 121.5t-54.5 161.5q0 97 57.5 189.5t160 145.5t221.5 53q116 0 214.5 -53.5t155 -145.5t56.5 -193q0 -100 -53.5 -179t-158.5 -100q150 -75 215 -171t65 -217q0 -171 -112 -302q-137 -161 -392 -161q-246 0 -373 140.5 t-127 309.5zM218 491q0 -81 44.5 -154t124 -112t184.5 -39q163 0 258.5 95.5t95.5 224.5q0 123 -101.5 219.5t-244.5 96.5q-154 0 -257.5 -99.5t-103.5 -231.5zM290 1179q0 -99 86.5 -163t200.5 -64q74 0 139.5 36.5t102 99.5t36.5 94q0 90 -72.5 166t-210.5 76 q-121 0 -201.5 -72t-80.5 -173z" />
<glyph unicode="9" horiz-adv-x="1142" d="M100 1106q0 129 59.5 231.5t168.5 164.5t235 62q123 0 227 -59.5t163.5 -166.5t59.5 -228q0 -92 -36.5 -192.5t-131.5 -240.5l-450 -631l-122 78l401 567q-81 -26 -152 -26q-176 0 -299 127.5t-123 313.5zM245 1106q0 -128 91.5 -219t220.5 -91q130 0 221 91t91 219 q0 130 -91 221t-221 91q-129 0 -220.5 -91t-91.5 -221z" />
<glyph unicode=":" horiz-adv-x="569" d="M187 180q0 52 36 88.5t88 36.5q51 0 87.5 -36.5t36.5 -88.5q0 -51 -36.5 -87.5t-87.5 -36.5q-52 0 -88 36.5t-36 87.5zM187 1083q0 51 36 88t88 37q51 0 87.5 -36t36.5 -89q0 -52 -36.5 -88.5t-87.5 -36.5q-52 0 -88 36.5t-36 88.5z" />
<glyph unicode=";" horiz-adv-x="569" d="M128 -47l168 403l137 -65l-205 -380zM188 1083q0 51 36 88t88 37q51 0 87 -36t36 -89q0 -52 -36 -88.5t-87 -36.5q-52 0 -88 36.5t-36 88.5z" />
<glyph unicode="&#x3c;" horiz-adv-x="1249" d="M104 759v131l1042 475v-149l-846 -392l846 -390v-148z" />
<glyph unicode="=" horiz-adv-x="1249" d="M115 534v138h1020v-138h-1020zM115 977v138h1020v-138h-1020z" />
<glyph unicode="&#x3e;" horiz-adv-x="1249" d="M104 286v148l846 390l-846 392v149l1042 -475v-131z" />
<glyph unicode="?" horiz-adv-x="1216" d="M170 1163q2 203 121.5 322t320.5 119q198 0 310.5 -100.5t112.5 -247.5q16 -70 -10.5 -206.5t-147.5 -215.5q-121 -44 -181 -142q-16 -52 -16 -337h-145q-8 336 25 398q39 105 232 204q102 66 93 296q0 88 -73.5 148.5t-197.5 60.5q-151 0 -235 -100q-59 -69 -63 -199 h-146zM487 180q0 52 36 88.5t87 36.5q52 0 88 -36.5t36 -88.5q0 -51 -36 -87.5t-88 -36.5q-51 0 -87 36.5t-36 87.5z" />
<glyph unicode="@" horiz-adv-x="1788" d="M137 839q0 217 105.5 403t287 290t397.5 104q303 0 513 -195t210 -454q0 -189 -87 -325.5t-237 -212.5q-114 -59 -194 -59q-59 0 -93 32q-26 24 -27 80q-34 -43 -94 -72t-125 -29q-145 0 -239.5 100.5t-94.5 265.5q0 178 114.5 325.5t315.5 147.5q89 0 149 -34 q23 -12 92 -58q75 -86 104 -218l-64 -360q-5 -32 -5 -42q0 -22 14 -35.5t37 -13.5q59 0 154 69t148 177.5t53 240.5q0 256 -198 425q-186 156 -451 156q-198 0 -359 -90.5t-254 -254.5t-93 -353q0 -193 93.5 -356t259.5 -256t365 -93q146 0 265 53t256 190h106 q-135 -168 -249 -237q-163 -94 -372 -94q-221 0 -407.5 104t-291 285t-104.5 394zM604 785q0 -125 67 -197.5t173 -72.5q66 0 124.5 41.5t92.5 125.5q44 110 44 221q0 102 -57 165.5t-147 63.5q-121 0 -209 -99.5t-88 -247.5z" />
<glyph unicode="A" horiz-adv-x="1527" d="M49 63l701 1483h36l691 -1483h-158l-233 489h-640l-231 -489h-166zM512 694h508l-252 538z" />
<glyph unicode="B" horiz-adv-x="1306" d="M153 63v1483h471q176 0 271 -42t149.5 -129t54.5 -192q0 -99 -48.5 -180t-142.5 -131q117 -40 179 -92.5t97 -127.5t35 -163q0 -179 -131 -302.5t-350 -123.5h-585zM298 208h362q162 0 237.5 32t121.5 99t46 147q0 98 -64.5 172t-177.5 101q-76 18 -263 18h-262v-569z M298 926h263q154 0 226.5 29t115 90.5t42.5 137.5q0 102 -71 160t-226 58h-350v-475z" />
<glyph unicode="C" horiz-adv-x="1677" d="M111 801q0 325 228.5 548t571.5 223q208 0 375.5 -82.5t274.5 -231.5l-118 -88q-96 126 -231.5 190.5t-297.5 64.5q-178 0 -329 -85t-234.5 -228.5t-83.5 -323.5q0 -271 186 -436.5t469 -165.5q312 0 521 244l118 -89q-111 -141 -277 -218t-370 -77q-390 0 -615 259 q-188 219 -188 496z" />
<glyph unicode="D" horiz-adv-x="1534" d="M179 63v1483h307q333 0 484 -54q215 -75 336.5 -261.5t121.5 -444.5q0 -222 -96.5 -392t-250 -250.5t-430.5 -80.5h-472zM321 204h171q307 0 427 38q167 54 263 195.5t96 346.5q0 215 -103.5 367t-289.5 208q-140 43 -459 43h-105v-1198z" />
<glyph unicode="E" d="M180 59v1483h850v-146h-702v-464h428v-144h-428v-582h696v-147h-844z" />
<glyph unicode="F" horiz-adv-x="1095" d="M179 59v1483h817v-146h-669v-464h397v-146h-397v-727h-148z" />
<glyph unicode="G" horiz-adv-x="1798" d="M117 825q0 211 105.5 376t290.5 268t418 103q188 0 354 -68.5t325 -218.5l-115 -109q-124 122 -271.5 185t-288.5 63q-174 0 -331.5 -86t-244.5 -232t-87 -278q0 -168 90 -318.5t248.5 -236t346.5 -85.5q228 0 386.5 129t188.5 334h-473v143h638q-2 -344 -203.5 -546 t-541.5 -202q-410 0 -650 280q-185 216 -185 499z" />
<glyph unicode="H" horiz-adv-x="1407" d="M177 59v1483h149v-622h755v622h148v-1483h-148v715h-755v-715h-149z" />
<glyph unicode="I" horiz-adv-x="465" d="M158 59v1483h148v-1483h-148z" />
<glyph unicode="J" horiz-adv-x="630" d="M46 -252q120 123 222 288q99 158 99 308v12v1206h143v-1297q-14 -135 -99 -277t-266 -347q-67 77 -99 107z" />
<glyph unicode="K" horiz-adv-x="1245" d="M158 55v1483h151v-572l652 572h224l-549 -506l604 -977h-195l-554 863l-182 -160v-703h-151z" />
<glyph unicode="L" horiz-adv-x="952" d="M179 63v1483h149v-1340h570v-143h-719z" />
<glyph unicode="M" horiz-adv-x="1895" d="M112 59l211 1483h24l603 -1216l596 1216h24l214 -1483h-147l-145 1061l-524 -1061h-38l-531 1068l-144 -1068h-143z" />
<glyph unicode="N" horiz-adv-x="1524" d="M180 59v1483h32l986 -1135v1135h146v-1483h-34l-976 1121v-1121h-154z" />
<glyph unicode="O" horiz-adv-x="1792" d="M115 782q0 213 103 396t282 286.5t387 103.5q336 0 562.5 -225t226.5 -554q0 -325 -226 -534t-551 -209q-330 0 -557 225.5t-227 510.5zM270 782q0 -264 182.5 -428t440.5 -164q172 0 319 84t229 228.5t82 286.5q0 176 -82 319t-231 228.5t-317 85.5q-164 0 -311.5 -85.5 t-229.5 -231t-82 -323.5z" />
<glyph unicode="P" horiz-adv-x="1219" d="M178 63v1483h295q255 0 343 -22q128 -32 208 -129t80 -245q0 -147 -78.5 -243.5t-216.5 -129.5q-101 -24 -377 -24h-106v-690h-148zM326 898l252 -3q151 0 221.5 27.5t111 90t40.5 137.5q0 76 -40.5 138t-106.5 88t-216 26h-262v-504z" />
<glyph unicode="Q" horiz-adv-x="1796" d="M117 818q0 213 104 378t282.5 268.5t392.5 103.5q330 0 556 -226t226 -518q0 -171 -61.5 -313t-192.5 -267l219 -277h-182l-151 191q-181 -112 -409 -112q-330 0 -557 225.5t-227 546.5zM272 818q0 -264 182.5 -446t440.5 -182q176 0 321 85l-330 420h180l265 -335 q194 189 194 465q0 176 -82 301t-231 210.5t-315 85.5t-313.5 -85t-229.5 -231t-82 -288z" />
<glyph unicode="R" horiz-adv-x="1251" d="M187 59v1483h295q247 0 335 -20q132 -30 215 -129.5t83 -244.5q0 -122 -57 -213t-163.5 -138.5t-184.5 -47.5l425 -690h-182l-425 690h-193v-690h-148zM335 893l255 -2q148 0 219.5 28t111 90t39.5 139q0 74 -40.5 135t-105.5 87.5t-218 26.5h-261v-504z" />
<glyph unicode="S" horiz-adv-x="1027" d="M57 359l126 76q133 -245 307 -245q75 0 141 35t100 93t34 124q0 74 -50 146q-70 99 -255 202q-186 140 -230 203q-79 104 -79 227q0 97 46 176t130.5 125.5t183.5 46.5q104 0 195 -52.5t193 -191.5l-121 -91q-83 110 -142 145.5t-129 35.5q-89 0 -146 -54.5t-57 -133.5 q0 -48 20 -94t74 -98q29 -29 192 -149q192 -142 263.5 -235t71.5 -204q0 -162 -122.5 -281t-297.5 -119q-136 0 -246 72t-202 241z" />
<glyph unicode="T" horiz-adv-x="879" d="M33 1398v144h814v-144h-332v-1339h-151v1339h-331z" />
<glyph unicode="U" horiz-adv-x="1449" d="M184 671v895h148v-895q0 -159 7 -199q11 -88 51 -146.5t123.5 -98t168.5 -39.5q27 -7 62 -7q59 0 139 20q128 32 173 95.5t66 143.5q16 56 16 231v895h148v-895q0 -199 -39 -321.5t-155.5 -213t-401.5 -90.5q-180 0 -307.5 86t-170.5 226q-28 88 -28 313z" />
<glyph unicode="V" horiz-adv-x="1448" d="M67 1538h161l491 -1146l500 1146h162l-646 -1483h-32z" />
<glyph unicode="W" horiz-adv-x="1980" d="M96 1538h152l302 -1069l424 1069h32l420 -1069l307 1069h151l-425 -1483h-29l-439 1122l-449 -1122h-27z" />
<glyph unicode="X" horiz-adv-x="1255" d="M69 59l473 765l-441 718h173l355 -578l358 578h172l-442 -718l470 -765h-172l-386 622l-387 -622h-173z" />
<glyph unicode="Y" horiz-adv-x="1220" d="M63 1542h172l379 -610l372 610h171l-469 -774v-709h-146v709z" />
<glyph unicode="Z" horiz-adv-x="990" d="M56 59l624 1339h-558v144h782l-619 -1339h588v-144h-817z" />
<glyph unicode="[" horiz-adv-x="721" d="M290 -317v1921h338v-144h-196v-1639h196v-138h-338z" />
<glyph unicode="\" horiz-adv-x="1248" d="M66 1604h155l960 -1722h-154z" />
<glyph unicode="]" horiz-adv-x="721" d="M93 -174h197v1640h-197v138h338v-1921h-338v143z" />
<glyph unicode="^" horiz-adv-x="1385" d="M120 452l514 1114h118l514 -1114h-134l-442 958l-440 -958h-130z" />
<glyph unicode="_" horiz-adv-x="1055" d="M1 83v129h1056v-129h-1056z" />
<glyph unicode="`" horiz-adv-x="777" d="M111 1694h217l220 -310h-139z" />
<glyph unicode="a" horiz-adv-x="1366" d="M104 628q0 228 151 396q167 184 420 184t420 -183q154 -167 154 -397q1 -284 1 -428t-1 -149h-149v249q-117 -218 -425 -244q-252 0 -411.5 171.5t-159.5 400.5zM248 626q0 -119 64.5 -229t218.5 -186q63 -14 121 -14q292 0 428 365q2 26 2 52q0 112 -32 216 q-28 58 -77 110q-123 130 -298 130t-301 -130t-126 -314z" />
<glyph unicode="b" horiz-adv-x="1405" d="M137 565q0 1041 0 1039h140v-612q89 109 199 162.5t241 53.5q232 0 397 -169t165 -410q0 -237 -166 -405t-400 -168q-134 0 -251.5 51.5t-216.5 162.5q-90 150 -108 295zM267 638q0 -191 126 -319t308 -128q119 0 218.5 58.5t158.5 162.5t59 222q0 116 -59.5 222.5 t-160 165t-214.5 58.5q-116 0 -220 -58.5t-160 -159t-56 -224.5z" />
<glyph unicode="c" horiz-adv-x="1334" d="M105 622q0 160 80.5 296.5t220 213t313.5 76.5q108 0 209.5 -33t172.5 -86.5t120 -136.5l-112 -70q-145 194 -396 194q-201 0 -333.5 -129t-132.5 -314q0 -120 61 -226.5t167 -164.5t238 -58q243 0 396 192l112 -73q-79 -118 -211.5 -182.5t-302.5 -64.5 q-259 0 -430.5 165t-171.5 401z" />
<glyph unicode="d" horiz-adv-x="1411" d="M137 629q0 -237 166 -405t400 -168q134 0 251.5 51.5t216.5 162.5q90 150 108 295q0 1041 0 1039h-140v-612q-89 109 -199 162.5t-241 53.5q-232 0 -397 -169t-165 -410zM279 634q0 116 59.5 222.5t160 165t214.5 58.5q116 0 220 -58.5t160 -159t56 -224.5 q0 -191 -126 -319t-308 -128q-119 0 -218.5 58.5t-158.5 162.5t-59 222z" />
<glyph unicode="e" horiz-adv-x="1340" d="M104 628q0 209 128 372q162 208 435 208q279 0 447 -213q119 -150 120 -374h-985q4 -192 122 -314.5t291 -122.5q84 0 163 29.5t134.5 77.5t120.5 156l118 -63q-57 -115 -134 -185t-173 -106.5t-217 -36.5q-268 0 -419 175.5t-151 396.5zM264 742h816q-28 113 -82 180.5 t-143 109t-187 41.5q-161 0 -277 -104q-84 -76 -127 -227z" />
<glyph unicode="f" horiz-adv-x="668" d="M95 55v1139q3 134 55 220q80 166 256 172q22 5 45 5q71 0 151 -48q-17 -42 -44 -117q-57 30 -112 30q-46 0 -92 -21q-90 -48 -116 -265v-110h260v-121h-261v-884h-142z" />
<glyph unicode="g" horiz-adv-x="1387" d="M100 640q0 152 75.5 283.5t209.5 208t281 76.5q124 0 225 -38q85 -31 201 -119q98 -81 154 -309q-2 -30 -2 -436q0 -231 -41 -338q-55 -151 -192.5 -232.5t-329.5 -81.5q-142 0 -254 40t-183 107t-130 196h153q63 -109 161.5 -161t245.5 -52q144 0 243.5 54t141.5 135 t42 263v56q-79 -101 -194.5 -155t-243.5 -54q-151 0 -284.5 75t-206 202.5t-72.5 279.5zM242 633q0 -181 121 -299t313 -118q196 0 314 117t118 308q0 124 -54.5 221t-154 153.5t-215.5 56.5q-120 0 -222.5 -58t-161 -160t-58.5 -221z" />
<glyph unicode="h" horiz-adv-x="1256" d="M156 55v1521h142v-621q85 113 187.5 169t222.5 56q124 0 219 -62.5t140 -167.5t45 -331v-564h-140v523q0 190 -16 254q-26 109 -95 163.5t-181 54.5q-128 0 -229.5 -84.5t-133.5 -209.5q-19 -80 -19 -299v-402h-142z" />
<glyph unicode="i" horiz-adv-x="412" d="M90 1489q0 48 34 82t82 34t82.5 -34t34.5 -82t-34.5 -82.5t-82.5 -34.5t-82 34.5t-34 82.5zM136 57v1097h141v-1097h-141z" />
<glyph unicode="j" horiz-adv-x="419" d="M27 -222q118 186 129 504v898h143v-940q-34 -440 -187 -586q-61 91 -85 124zM109 1515q0 48 34 82t82 34q49 0 82.5 -34t33.5 -82t-33.5 -82.5t-82.5 -34.5q-48 0 -82 34.5t-34 82.5z" />
<glyph unicode="k" horiz-adv-x="1035" d="M155 57v1521h142v-866l507 442h208l-459 -417l494 -680h-200l-432 590l-118 -97v-493h-142z" />
<glyph unicode="l" horiz-adv-x="412" d="M135 57v1521h142v-1521h-142z" />
<glyph unicode="m" horiz-adv-x="1934" d="M155 57v425v175q18 224 94 328q63 95 165 151q67 43 191 46q80 0 162 -30t127 -80t91 -150q25 64 105 150q39 33 101 65q42 27 195 45q114 0 219 -57t147.5 -160.5t42.5 -308.5v-599h-144v599q0 176 -25 242t-86 106.5t-147 40.5q-162 -11 -277 -157q-45 -62 -68 -275 v-556h-141v562q0 198 -44 269.5t-105 114t-152 42.5q-98 0 -168 -50q-71 -49 -111 -149q-33 -83 -33 -253q0 -34 1 -71v-465h-140z" />
<glyph unicode="n" horiz-adv-x="1256" d="M154 590q-1 20 -1 38q0 62 8 108q22 189 96 277q72 77 147 119q117 50 266 50h17q124 0 229.5 -62.5t150.5 -168t45 -330.5v-564h-140v523q0 190 -16 254q-25 109 -99 154.5t-219 45.5q-128 0 -228 -74q-93 -69 -93 -185v-17q-19 -82 -19 -299v-402h-142v416z" />
<glyph unicode="o" horiz-adv-x="1349" d="M104 628q0 228 151 396q167 184 420 184t420 -183q151 -168 151 -397t-160 -400.5t-411 -171.5q-252 0 -411.5 171.5t-159.5 400.5zM248 626q0 -119 57.5 -222.5t155.5 -159t214 -55.5q118 0 215.5 55.5t154.5 159t57 222.5q0 184 -126 314t-301 130t-301 -130t-126 -314 z" />
<glyph unicode="p" horiz-adv-x="1405" d="M137 -344h140v612q89 -109 199 -162.5t241 -53.5q232 0 397 169t165 410q0 237 -166 405t-400 168q-134 0 -251.5 -51.5t-216.5 -162.5q-90 -150 -108 -295q0 -1041 0 -1039zM267 622q0 191 126 319t308 128q119 0 218.5 -58.5t158.5 -162.5t59 -222q0 -116 -59.5 -222.5 t-160 -165t-214.5 -58.5q-116 0 -220 58.5t-160 159t-56 224.5z" />
<glyph unicode="q" horiz-adv-x="1405" d="M137 631q0 237 166 405t400 168q134 0 251.5 -51.5t216.5 -162.5q90 -150 108 -295q0 -1041 0 -1039h-140v612q-89 -109 -199 -162.5t-241 -53.5q-232 0 -397 169t-165 410zM279 626q0 -116 59.5 -222.5t160 -165t214.5 -58.5q116 0 220 58.5t160 159t56 224.5 q0 191 -126 319t-308 128q-119 0 -218.5 -58.5t-158.5 -162.5t-59 -222z" />
<glyph unicode="r" horiz-adv-x="620" d="M103 59v500v132q16 99 46 161q70 172 188 252t196 80q58 0 124 -38l-73 -118q-26 9 -51 9q-67 0 -133 -64q-92 -89 -127 -194q-26 -93 -26 -349v-371h-144z" />
<glyph unicode="s" horiz-adv-x="800" d="M54 210l89 101q108 -122 229 -122q84 0 143.5 54.5t59.5 127.5q0 61 -39 108t-177 118q-149 75 -202 151q-54 74 -54 170q0 125 85.5 207.5t214.5 82.5q151 0 305 -148l-90 -94q-114 110 -221 110q-69 0 -118 -45t-49 -107q0 -52 41 -100q40 -51 169 -117 q158 -81 214 -157q55 -77 55 -173q0 -134 -94.5 -227.5t-236.5 -93.5q-95 0 -181.5 40.5t-142.5 113.5z" />
<glyph unicode="t" horiz-adv-x="664" d="M89 444v-8q0 -115 55 -212q94 -159 256 -168h12q82 0 184 39q-17 42 -44 117q-57 -30 -112 -30q-46 0 -92 21q-116 89 -116 249v16v464h260v121h-261v530h-142v-1139z" />
<glyph unicode="u" horiz-adv-x="1253" d="M138 652v528h142v-512q0 -188 20 -258q30 -101 115 -159.5t204 -58.5q118 0 200 57t113 150q22 63 22 269v512h144v-539q0 -227 -53.5 -341.5t-159.5 -179t-266 -64.5q-161 0 -268 64.5t-160 181t-53 350.5z" />
<glyph unicode="v" d="M53 1152h150l367 -798l364 798h151l-502 -1097h-25z" />
<glyph unicode="w" horiz-adv-x="1715" d="M9 1152h145l336 -797l352 797h25l350 -797l342 797h148l-476 -1097h-28l-348 785l-352 -785h-26z" />
<glyph unicode="x" horiz-adv-x="991" d="M-7 57l415 576l-375 521h169l290 -407l291 407h169l-376 -521l423 -576h-171l-336 461l-331 -461h-168z" />
<glyph unicode="y" horiz-adv-x="1106" d="M39 1180h149l377 -845l366 845h151l-655 -1497h-149l211 483z" />
<glyph unicode="z" horiz-adv-x="877" d="M9 57l620 985h-561v124h805l-622 -984h602v-125h-844z" />
<glyph unicode="{" horiz-adv-x="723" d="M75 515v163q61 3 100 26q49 28 74.5 80t30.5 145q3 46 4.5 212.5t21.5 238t62.5 113.5t107.5 61q39 12 126 12h56v-158h-31q-106 0 -139.5 -39t-33.5 -169q0 -235 -7 -300q-13 -123 -58.5 -189t-145.5 -114q112 -47 161.5 -142.5t49.5 -311.5q0 -194 4 -229q6 -54 25 -84 q14 -20 45 -31.5t130 -11.5v-158h-56q-101 0 -147 17q-68 25 -109 81.5t-53 149.5q-8 66 -9 247q-1 186 -21 251.5t-67.5 101.5t-120.5 38z" />
<glyph unicode="|" horiz-adv-x="693" d="M286 -317v1921h144v-1921h-144z" />
<glyph unicode="}" horiz-adv-x="723" d="M65 -213h31q106 0 140 38.5t34 168.5q0 240 7 306q15 122 64.5 191t138.5 106q-117 56 -163.5 148.5t-46.5 304.5q0 224 -9 262q-11 52 -43 74t-122 22h-31v158h56q101 0 148 -18q67 -25 108 -81.5t53 -148.5q9 -66 9 -248q2 -185 21.5 -251t67 -102t120.5 -39v-163 q-61 -1 -99 -24q-50 -29 -75.5 -80.5t-30.5 -144.5q-2 -47 -3.5 -213.5t-22 -237.5t-62.5 -113.5t-108 -61.5q-39 -11 -126 -11h-56v158z" />
<glyph unicode="~" horiz-adv-x="1250" d="M112 723v161q110 62 160 79.5t96 17.5q98 0 270 -82q120 -56 163.5 -70t78.5 -14q42 0 86 17t170 95v-163q-113 -64 -161.5 -81t-92.5 -17q-96 0 -267 78q-133 60 -170 72t-69 12q-44 0 -97.5 -19t-166.5 -86z" />
<glyph unicode="&#xa1;" horiz-adv-x="606" d="M179 1077q0 51 36 88t88 37q51 0 87.5 -36t36.5 -89q0 -52 -36.5 -88.5t-87.5 -36.5q-52 0 -88 36.5t-36 88.5zM232 -346v1149h145v-1149h-145z" />
<glyph unicode="&#xa2;" horiz-adv-x="1142" d="M103 622q0 242 152 414t396 172q92 0 183 -33l134 259l121 -61l-133 -259q73 -46 118 -95l-85 -105q-47 44 -96 76l-398 -771q76 -33 146 -33q146 0 308 129l91 -107q-78 -70 -184.5 -111t-213.5 -41q-97 0 -210 37l-154 -297l-117 64l152 302q-109 99 -159.5 211.5 t-50.5 248.5zM245 630q0 -109 33.5 -191.5t100.5 -144.5l391 758q-65 21 -122 21q-172 0 -287.5 -121.5t-115.5 -321.5z" />
<glyph unicode="&#xa3;" d="M57 236q0 97 66.5 165.5t156.5 68.5q69 0 145 -40q8 67 8 107q0 141 -45 267h-289v130h257q-55 193 -61 229q-11 58 -11 108q0 136 105 234.5t258 98.5q101 0 173 -43.5t119 -124.5t58 -219h-137q-5 123 -60 187t-148 64q-102 0 -164.5 -57t-62.5 -149q0 -82 29 -165 l7 -18l46 -145h322v-130h-288q37 -127 37 -266q0 -108 -22 -190q61 -51 167 -116q61 -36 112 -36q94 0 106 234h142q1 -118 -33.5 -213t-85 -133t-113.5 -38q-67 0 -146 35q-109 49 -198 126q-84 -161 -239 -161q-97 0 -154 51t-57 139zM195 256q0 -32 20 -54t47 -22 q76 0 126 112q-69 41 -115 41q-34 0 -56 -22.5t-22 -54.5z" />
<glyph unicode="&#xa4;" horiz-adv-x="985" d="M27 195l138 139q-97 112 -97 270q0 151 97 272l-138 135l54 55l140 -137q50 43 126.5 71t147.5 28q66 0 139 -25.5t130 -73.5l137 137l55 -55l-138 -135q99 -127 99 -270q0 -147 -99 -272l138 -139l-55 -53l-137 137q-130 -99 -259 -99q-86 0 -165.5 29t-118.5 70 l-140 -137zM145 602q0 -142 102 -243.5t244 -101.5q143 0 246.5 102.5t103.5 243.5q0 87 -47.5 172t-130 130t-170.5 45q-146 0 -247 -102t-101 -246z" />
<glyph unicode="&#xa5;" d="M62 1566h168l340 -607l343 607h167l-420 -741h358v-118h-376v-156h376v-117h-376v-351h-146v351h-373v117h373v156h-373v118h357z" />
<glyph unicode="&#xa6;" horiz-adv-x="1377" d="M616 -317v964l144 54v-1018h-144zM616 774v830h144v-774z" />
<glyph unicode="&#xa7;" horiz-adv-x="1266" d="M130 704q0 63 31 124.5t88 107t143 70.5q-100 72 -139.5 144.5t-39.5 161.5q0 140 101.5 229.5t272.5 89.5q168 0 266.5 -88.5t117.5 -255.5h-149q-10 95 -72 149t-160 54q-107 0 -168.5 -53t-61.5 -129q0 -44 20 -81q26 -51 83.5 -100t199.5 -133q167 -101 225.5 -153 t88 -113.5t29.5 -119.5q0 -102 -78 -188t-210 -111q107 -66 163.5 -156t56.5 -182q0 -133 -103.5 -225t-268.5 -92t-273.5 84t-130.5 206h149q24 -64 67 -99q74 -59 178 -59q107 0 170 53.5t63 128.5q0 68 -51 133q-50 65 -232 181q-173 111 -212 138q-85 66 -124.5 137.5 t-39.5 146.5zM278 711q0 -73 52 -133q70 -81 269 -186q124 15 191.5 77t67.5 141q0 62 -47 115t-287 195l-14 9q-111 -17 -171.5 -76t-60.5 -142z" />
<glyph unicode="&#xa8;" horiz-adv-x="762" d="M58 1497q0 48 34 82t82 34q50 0 84 -34t34 -82q0 -49 -34 -83.5t-84 -34.5q-48 0 -82 34.5t-34 83.5zM470 1497q0 48 34 82t82 34t83 -34t35 -82q0 -49 -35 -83.5t-83 -34.5t-82 34.5t-34 83.5z" />
<glyph unicode="&#xa9;" horiz-adv-x="1543" d="M-20 846q0 212 105.5 395t290 289t396.5 106t396 -106t290 -289t106 -395t-106 -394.5t-290 -289t-396 -106.5q-211 0 -396 106.5t-290.5 289.5t-105.5 394zM90 846q0 -183 91.5 -341.5t250 -249.5t340.5 -91t340.5 91t250 249.5t91.5 341.5q0 184 -91.5 342t-250 249.5 t-341.5 91.5t-340.5 -91.5t-249 -250t-91.5 -341.5zM358 843q0 227 118 354t301 127q169 0 270 -84t113 -226h-137q-22 90 -80.5 135t-157.5 45q-128 0 -205.5 -90.5t-77.5 -263.5q0 -169 74.5 -257.5t194.5 -88.5q101 0 167 61.5t85 186.5h137q-20 -166 -126 -263.5 t-257 -97.5q-191 0 -305 122.5t-114 339.5z" />
<glyph unicode="&#xaa;" horiz-adv-x="829" d="M65 1259q0 143 103 244t246 101q144 0 245.5 -101t101.5 -246v-353h-121v108q-4 -4 -10 -9q-80 -78 -218 -93q-145 0 -246 101t-101 248zM185 1257q0 -99 68.5 -169.5t160.5 -70.5q94 0 160.5 69.5t66.5 167.5q0 104 -66 173.5t-160 69.5t-162 -70.5t-68 -169.5z" />
<glyph unicode="&#xab;" horiz-adv-x="876" d="M21 629l223 551h150l-225 -551l225 -546h-150zM483 629l223 551h150l-227 -551l227 -546h-150z" />
<glyph unicode="&#xac;" horiz-adv-x="1249" d="M115 977v138h1020v-581h-138l-1 443h-881z" />
<glyph unicode="&#xad;" horiz-adv-x="987" d="M199 712v124h554v-124h-554z" />
<glyph unicode="&#xae;" horiz-adv-x="1543" d="M-20 845q0 211 106 397t290.5 292t395.5 106q212 0 395 -106t290 -291t107 -394q0 -214 -106 -397t-290.5 -289.5t-395.5 -106.5q-210 0 -395 106.5t-291 289.5t-106 393zM90 846q0 -182 91.5 -340.5t251.5 -250t341 -91.5q180 0 338.5 92t250 250t91.5 343 q0 181 -92 340.5t-249 251.5t-339 92t-341.5 -92t-251 -251.5t-91.5 -343.5zM443 399v911h379q134 0 192.5 -26.5t95 -87t36.5 -141.5q0 -69 -26 -120q-20 -37 -88 -81q62 -30 83 -70.5t21 -136.5v-103q0 -73 32 -121l16 -24h-161q-16 56 -22 134l-7 112q-4 61 -19.5 86 t-44 36.5t-115.5 11.5h-228v-380h-144zM587 909h223q102 0 138 23q54 33 54 112q0 70 -38 102.5t-144 32.5h-233v-270z" />
<glyph unicode="&#xaf;" horiz-adv-x="1032" d="M-12 1720v104h1056v-104h-1056z" />
<glyph unicode="&#xb0;" horiz-adv-x="825" d="M65 1259q0 143 103 244t246 101q144 0 245.5 -101t101.5 -246q0 -147 -102 -247t-247 -100t-246 101t-101 248zM185 1257q0 -99 68.5 -169.5t160.5 -70.5q94 0 160.5 69.5t66.5 167.5q0 104 -66 173.5t-160 69.5t-162 -70.5t-68 -169.5z" />
<glyph unicode="&#xb1;" horiz-adv-x="1132" d="M56 107v138h1020v-138h-1020zM56 866v138h440v438h138v-438h442v-138h-442v-438h-138v438h-440z" />
<glyph unicode="&#xb2;" horiz-adv-x="685" d="M6 822l361 328q107 96 133 137t26 80q0 55 -50 96t-127 41q-85 0 -135.5 -46t-57.5 -130h-107q3 120 87 198t218 78q125 0 203.5 -69t78.5 -165q0 -62 -33 -118t-145 -157l-190 -173h379v-100h-641z" />
<glyph unicode="&#xb3;" horiz-adv-x="709" d="M44 1047h110q20 -73 68 -108t126 -35q90 0 144 44t54 102q0 66 -60 103.5t-196 42.5v94q103 0 153.5 33t50.5 77q0 40 -41 72t-109 32q-55 0 -92.5 -26.5t-65.5 -91.5h-113q26 107 97 162.5t174 55.5q118 0 191.5 -61.5t73.5 -144.5q0 -87 -91 -146q67 -32 103 -85 t36 -111q0 -102 -85 -177t-224 -75q-126 0 -203.5 62t-100.5 181z" />
<glyph unicode="&#xb4;" horiz-adv-x="771" d="M234 1384l220 310h217l-298 -310h-139z" />
<glyph unicode="&#xb5;" horiz-adv-x="1187" d="M147 -317v1497h142v-605q0 -137 34 -204.5t109.5 -113t163.5 -45.5q87 0 157.5 43.5t108 120.5t37.5 212v592h141v-1097h-141v119q-60 -74 -135 -109t-169 -35q-95 0 -171.5 35t-134.5 107v-517h-142z" />
<glyph unicode="&#xb6;" horiz-adv-x="1162" d="M94 1197q0 191 116 311q99 100 303 100h517v-75h-85v-1682h-120v1682h-219v-1682h-120v944q-75 0 -111 8q-79 17 -143 68t-101 136t-37 190z" />
<glyph unicode="&#xb7;" horiz-adv-x="690" d="M439 873q0 55 39.5 94.5t96.5 39.5q56 0 95.5 -39.5t39.5 -94.5q0 -57 -40 -96t-95 -39q-57 0 -96.5 39t-39.5 96z" />
<glyph unicode="&#xb8;" horiz-adv-x="668" d="M139 -269l22 69q64 -20 121 -20q75 0 106 18.5t31 47.5q0 17 -17 30t-46 13q-25 0 -71 -9l27 203h89l-17 -118q23 2 38 2q49 0 83 -30.5t34 -76.5q0 -67 -61 -113t-171 -46q-89 0 -168 30z" />
<glyph unicode="&#xb9;" horiz-adv-x="682" d="M151 1485l73 99h189v-762h-111v663h-151z" />
<glyph unicode="&#xba;" horiz-adv-x="761" d="M55 1241q0 156 96 259.5t228 103.5q134 0 230 -104t96 -259q0 -152 -95 -254.5t-231 -102.5q-133 0 -228.5 102.5t-95.5 254.5zM173 1240q0 -108 61 -178t145 -70q86 0 147.5 70t61.5 178q0 107 -63 179.5t-146 72.5q-82 0 -144 -72.5t-62 -179.5z" />
<glyph unicode="&#xbb;" horiz-adv-x="876" d="M21 83l224 550l-224 547h149l224 -547l-224 -550h-149zM483 83l224 550l-224 547h148l225 -547l-225 -550h-148z" />
<glyph unicode="&#xbc;" horiz-adv-x="1995" d="M115 1485l73 99h189v-762h-111v663h-151zM506 46l930 1558h113l-932 -1558h-111zM1229 110l547 630v-164l-317 -366h205l1 144l111 -1v-146h106v-97h-106v-172h-112v172h-435z" />
<glyph unicode="&#xbd;" horiz-adv-x="1981" d="M104 1485l73 99h189v-762h-111v663h-151zM375 46l930 1558h113l-932 -1558h-111zM1135 -68l360 328q107 96 133 136.5t26 80.5q0 55 -49.5 96t-126.5 41q-85 0 -135.5 -46.5t-57.5 -130.5h-107q1 120 85.5 198t218.5 78q126 0 204.5 -69t78.5 -165q0 -61 -33.5 -117.5 t-144.5 -157.5l-192 -172h381v-100h-641z" />
<glyph unicode="&#xbe;" horiz-adv-x="1999" d="M69 1047h110q20 -73 68 -108t126 -35q90 0 144 44t54 102q0 66 -60 103.5t-196 42.5v94q103 0 153.5 33t50.5 77q0 40 -41 72t-109 32q-55 0 -92.5 -26.5t-65.5 -91.5h-113q26 107 97 162.5t174 55.5q118 0 191.5 -61.5t73.5 -144.5q0 -87 -91 -146q67 -32 103 -85 t36 -111q0 -102 -85 -177t-224 -75q-126 0 -203.5 62t-100.5 181zM543 46l931 1558h113l-932 -1558h-112zM1223 107l547 630v-164l-317 -366h205l1 144l111 -1v-146h106v-97h-106v-172h-112v172h-435z" />
<glyph unicode="&#xbf;" horiz-adv-x="1216" d="M183 2q0 70 31 130t93 108t219 110q196 78 239 117q41 40 41 94q0 59 -57 105t-147 46q-101 0 -154.5 -51t-65.5 -163h-146q7 168 104 262.5t262 94.5q163 0 259.5 -84.5t96.5 -210.5q0 -60 -27 -114t-75.5 -90t-184.5 -93q-217 -89 -277 -132q-62 -44 -62 -126 q0 -88 74.5 -148.5t197.5 -60.5q153 0 237 99q57 70 61 199h146q-2 -202 -121.5 -321t-319.5 -119q-198 0 -311 100t-113 248zM483 1077q0 51 36.5 88t88.5 37q50 0 86.5 -36t36.5 -89q0 -52 -36.5 -88.5t-86.5 -36.5q-52 0 -88.5 36.5t-36.5 88.5z" />
<glyph unicode="&#xc0;" horiz-adv-x="1537" d="M49 83l701 1368h36l691 -1368h-158l-233 450h-640l-231 -450h-166zM512 665h508l-252 496zM563 1773h217l219 -286h-139z" />
<glyph unicode="&#xc1;" horiz-adv-x="1532" d="M49 83l701 1361h36l691 -1361h-158l-233 448h-640l-231 -448h-166zM512 663h508l-252 492zM545 1498l219 284h217l-297 -284h-139z" />
<glyph unicode="&#xc2;" horiz-adv-x="1519" d="M49 83l701 1483h36l691 -1483h-158l-233 489h-640l-231 -489h-166zM407 1527l298 259h141l293 -259h-183l-176 153l-186 -153h-187zM512 714h508l-252 538z" />
<glyph unicode="&#xc3;" horiz-adv-x="1536" d="M49 83l701 1483h36l691 -1483h-158l-233 489h-640l-231 -489h-166zM393 1695q93 97 227 97q65 0 155 -40q85 -39 134 -39q57 0 153 53l71 -98q-72 -52 -122.5 -70t-105.5 -18q-72 0 -149 37q-66 32 -84 37q-24 7 -53 7q-35 0 -66.5 -12.5t-91.5 -56.5zM512 714h508 l-252 538z" />
<glyph unicode="&#xc4;" horiz-adv-x="1522" d="M49 83l701 1483h36l691 -1483h-158l-233 489h-640l-231 -489h-166zM451 1676q0 48 34 82t82 34q50 0 84 -34t34 -82q0 -50 -34 -84t-84 -34q-48 0 -82 34t-34 84zM512 714h508l-252 538zM863 1676q0 48 34 82t82 34t82 -34t34 -82q0 -50 -34 -84t-82 -34t-82 34t-34 84z " />
<glyph unicode="&#xc5;" horiz-adv-x="1515" d="M49 83l701 1483h36l691 -1483h-158l-233 489h-640l-231 -489h-166zM512 714h508l-252 538zM600 1635q0 67 46.5 114t112.5 47t113.5 -47t47.5 -114q0 -66 -46.5 -113t-114.5 -47q-66 0 -112.5 47t-46.5 113zM677 1637q0 -33 24 -58t58 -25t58 25t24 58q0 34 -24 58.5 t-58 24.5t-58 -24.5t-24 -58.5z" />
<glyph unicode="&#xc6;" horiz-adv-x="1977" d="M1 83l958 1483h916v-152h-698v-456h698v-146h-698v-584h698v-145h-848v486h-539l-314 -486h-173zM583 708h444v687z" />
<glyph unicode="&#xc7;" horiz-adv-x="1638" d="M111 833q0 325 228.5 548t571.5 223q208 0 375.5 -82.5t274.5 -231.5l-118 -88q-96 126 -231.5 190.5t-297.5 64.5q-178 0 -329 -85t-234.5 -228.5t-83.5 -323.5q0 -271 186 -452.5t469 -181.5q312 0 521 244l118 -89q-111 -141 -277 -218t-370 -77q-390 0 -615 259 q-188 219 -188 528zM644 -269l21 69q65 -20 122 -20q75 0 105 18.5t30 47.5q0 17 -16.5 30t-45.5 13q-24 0 -71 -9l28 203h88l-16 -118q22 2 38 2q49 0 82 -30.5t33 -76.5q0 -67 -60.5 -113t-169.5 -46q-90 0 -168 30z" />
<glyph unicode="&#xc8;" horiz-adv-x="1166" d="M180 83v1341h850v-132h-702v-420h696v-131h-696v-526h696v-132h-844zM365 1782h217l220 -279h-140z" />
<glyph unicode="&#xc9;" horiz-adv-x="1144" d="M180 83v1362h850v-134h-702v-426h696v-133h-696v-534h696v-135h-844zM425 1508l219 284h218l-298 -284h-139z" />
<glyph unicode="&#xca;" horiz-adv-x="1146" d="M180 83v1385h850v-137h-702v-433h696v-136h-696v-542h696v-137h-844zM258 1548l299 242h140l292 -242h-181l-178 143l-185 -143h-187z" />
<glyph unicode="&#xcb;" horiz-adv-x="1159" d="M180 83v1396h850v-137h-702v-437h696v-137h-696v-547h696v-138h-844zM302 1671q0 45 34.5 77.5t82.5 32.5t82.5 -32.5t34.5 -77.5q0 -46 -34.5 -77.5t-82.5 -31.5t-82.5 31.5t-34.5 77.5zM713 1671q0 45 34 77.5t83 32.5q48 0 82.5 -32.5t34.5 -77.5q0 -46 -34.5 -77.5 t-82.5 -31.5q-49 0 -83 31.5t-34 77.5z" />
<glyph unicode="&#xcc;" horiz-adv-x="437" d="M-4 1763h217l220 -272h-139zM152 83v1306h149v-1306h-149z" />
<glyph unicode="&#xcd;" horiz-adv-x="536" d="M81 1498l220 265h217l-298 -265h-139zM158 83v1266h149v-1266h-149z" />
<glyph unicode="&#xce;" horiz-adv-x="525" d="M-132 1539l299 241h140l293 -241h-181l-178 143l-186 -143h-187zM161 83v1385h147v-1385h-147z" />
<glyph unicode="&#xcf;" horiz-adv-x="502" d="M-88 1672q0 46 35 77.5t81 31.5q50 0 84 -31.5t34 -77.5t-34 -77.5t-84 -31.5q-46 0 -81 31.5t-35 77.5zM160 83v1387h148v-1387h-148zM324 1672q0 46 34 77.5t82 31.5t83 -31.5t35 -77.5t-35 -77.5t-83 -31.5t-82 31.5t-34 77.5z" />
<glyph unicode="&#xd0;" horiz-adv-x="1629" d="M34 755v138h180v673h370q331 0 482 -54q215 -75 336.5 -261.5t121.5 -444.5q0 -222 -96.5 -392t-250 -250.5t-429.5 -80.5h-534v672h-180zM357 224h231q308 0 426 38q168 54 264 195.5t96 346.5q0 215 -104 367t-289 208q-139 43 -459 43h-165v-529h390v-138h-390v-531z " />
<glyph unicode="&#xd1;" horiz-adv-x="1434" d="M180 83v1483h32l986 -1135v1135h146v-1483h-34l-976 1121v-1121h-154zM395 1688q92 97 227 97q64 0 154 -40q86 -39 135 -39q56 0 152 52l71 -97q-73 -53 -123 -71t-105 -18q-72 0 -149 38q-66 32 -84 37q-24 7 -53 7q-34 0 -66 -12.5t-92 -57.5z" />
<glyph unicode="&#xd2;" horiz-adv-x="1773" d="M115 711q0 185 103 342t282 246t387 89q336 0 562.5 -194t226.5 -477q0 -280 -226 -475.5t-551 -195.5q-330 0 -557 194.5t-227 470.5zM270 711q0 -227 182.5 -384t440.5 -157q172 0 319 72.5t229 197t82 277.5q0 152 -82 275t-231 197t-317 74q-164 0 -311.5 -74 t-229.5 -198.5t-82 -279.5zM618 1773h216l219 -268h-139z" />
<glyph unicode="&#xd3;" horiz-adv-x="1742" d="M115 738q0 191 103 355t282 256.5t387 92.5q336 0 562.5 -201t226.5 -497q0 -291 -226 -494.5t-551 -203.5q-330 0 -557 202t-227 490zM270 738q0 -236 182.5 -399t440.5 -163q172 0 319 75t229 205t82 288q0 159 -82 286.5t-231 204.5t-317 77q-164 0 -311.5 -77 t-229.5 -207t-82 -290zM727 1504l220 278h216l-297 -278h-139z" />
<glyph unicode="&#xd4;" horiz-adv-x="1784" d="M115 754q0 197 103 363.5t282 261.5t387 95q336 0 562.5 -206t226.5 -507q0 -299 -226 -507t-551 -208q-330 0 -557 207t-227 501zM270 754q0 -242 182.5 -409t440.5 -167q172 0 319 77t229 210t82 296q0 161 -82 292t-231 209.5t-317 78.5q-164 0 -311.5 -78.5 t-229.5 -211.5t-82 -297zM530 1552l300 238h139l293 -238h-181l-178 140l-186 -140h-187z" />
<glyph unicode="&#xd5;" horiz-adv-x="1782" d="M115 782q0 202 103 376t282 272.5t387 98.5q336 0 562.5 -214t226.5 -527q0 -310 -226 -526t-551 -216q-330 0 -557 215t-227 521zM270 782q0 -252 182.5 -425.5t440.5 -173.5q172 0 319 79.5t229 218.5t82 307t-82 304t-231 217.5t-317 81.5q-164 0 -311.5 -81.5 t-229.5 -220t-82 -307.5zM517 1688q91 92 227 92q63 0 153 -38q87 -38 136 -38q55 0 152 51l70 -93q-72 -50 -122 -67.5t-105 -17.5q-73 0 -150 36q-65 31 -84 36q-24 6 -51 6q-36 0 -68 -12t-92 -54z" />
<glyph unicode="&#xd6;" horiz-adv-x="1767" d="M115 770q0 199 103 370t282 267.5t387 96.5q336 0 562.5 -210t226.5 -518q0 -305 -226 -517.5t-551 -212.5q-330 0 -557 211t-227 513zM270 770q0 -249 182.5 -419.5t440.5 -170.5q172 0 319 79t229 215t82 302q0 165 -82 298.5t-231 213.5t-317 80q-164 0 -311.5 -80 t-229.5 -216t-82 -302zM573 1682q0 45 34.5 77t83.5 32q48 0 82 -32t34 -77q0 -46 -34 -78t-82 -32q-49 0 -83.5 32t-34.5 78zM985 1682q0 45 34 77t82 32q50 0 84 -32t34 -77q0 -46 -34 -78t-84 -32q-48 0 -82 32t-34 78z" />
<glyph unicode="&#xd7;" horiz-adv-x="1248" d="M197 490l334 334l-334 334l92 94l335 -335l334 335l92 -94l-333 -334l333 -334l-92 -92l-334 333l-335 -333z" />
<glyph unicode="&#xd8;" horiz-adv-x="1790" d="M114 818q0 213 104 396t283 286.5t394 103.5q259 0 471 -150l145 176l105 -88l-151 -180q101 -103 155.5 -240.5t54.5 -296.5q0 -325 -226 -552t-551 -227q-248 0 -441 128l-165 -194l-108 88l166 195q-236 228 -236 555zM269 818q0 -258 177 -442l818 962 q-171 120 -372 120q-164 0 -311.5 -85.5t-229.5 -231t-82 -323.5zM554 288q154 -98 338 -98q172 0 319 84t229 228.5t82 322.5q0 246 -156 421z" />
<glyph unicode="&#xd9;" horiz-adv-x="1316" d="M184 629v837h148v-837q0 -149 7 -185q11 -82 51 -137t123.5 -92t168.5 -37q73 0 141 29t113 81t66 125q16 53 16 216v837h148v-837q0 -185 -39 -299.5t-155.5 -199t-281.5 -84.5q-180 0 -307.5 80t-170.5 212q-28 80 -28 291zM396 1782h216l220 -289h-138z" />
<glyph unicode="&#xda;" horiz-adv-x="1331" d="M184 671v895h148v-895q0 -159 7 -199q11 -88 51 -146.5t123.5 -98t168.5 -39.5q73 0 141 31t113 86t66 135q16 56 16 231v895h148v-895q0 -199 -39 -321.5t-155.5 -213t-281.5 -90.5q-180 0 -307.5 86t-170.5 226q-28 88 -28 313zM477 1460l219 309h218l-298 -309h-139z " />
<glyph unicode="&#xdb;" horiz-adv-x="1328" d="M184 620v822h148v-822q0 -147 7 -183q11 -80 51 -134t123.5 -90.5t168.5 -36.5q73 0 141 28.5t113 79.5t66 123q16 52 16 213v822h148v-822q0 -183 -39 -295t-155.5 -195.5t-281.5 -83.5q-180 0 -307.5 78.5t-170.5 208.5q-28 79 -28 287zM309 1542l300 238h139l293 -238 h-181l-178 141l-186 -141h-187z" />
<glyph unicode="&#xdc;" horiz-adv-x="1315" d="M184 620v823h148v-823q0 -147 7 -183q11 -80 51 -134t123.5 -90.5t168.5 -36.5q73 0 141 28.5t113 79.5t66 123q16 52 16 213v823h148v-823q0 -183 -39 -295t-155.5 -195.5t-281.5 -83.5q-180 0 -307.5 78.5t-170.5 208.5q-28 80 -28 287zM352 1662q0 48 34 82.5t84 34.5 q48 0 82 -34.5t34 -82.5q0 -49 -34 -83t-82 -34q-50 0 -84 34t-34 83zM764 1662q0 48 34 82.5t83 34.5q48 0 82.5 -34.5t34.5 -82.5q0 -49 -34.5 -83t-82.5 -34q-49 0 -83 34t-34 83z" />
<glyph unicode="&#xdd;" horiz-adv-x="1197" d="M63 1466h172l379 -569l372 569h171l-469 -722v-661h-146v661zM441 1484l220 289h217l-298 -289h-139z" />
<glyph unicode="&#xde;" horiz-adv-x="1219" d="M178 83v1483h148v-346h147q253 0 342 -23q127 -31 208 -128.5t81 -244.5t-78.5 -243.5t-216.5 -130.5q-101 -24 -377 -24h-106v-343h-148zM326 572l252 -4q151 0 221.5 28t111 90t40.5 138q0 75 -40.5 137t-106.5 88.5t-216 26.5h-262v-504z" />
<glyph unicode="&#xdf;" horiz-adv-x="1142" d="M162 83v1003q0 228 44 325t144 158.5t237 61.5q177 0 287 -103.5t110 -261.5q0 -99 -50.5 -176.5t-140.5 -124.5q-49 -25 -138 -37q97 -16 150 -42q109 -58 170.5 -158.5t61.5 -232.5q0 -195 -117.5 -317t-302.5 -122q-124 0 -210 49v133q105 -49 189 -49q130 0 215 86.5 t85 222.5q0 153 -102.5 249t-295.5 102v157h32q140 0 224.5 74.5t84.5 179.5q0 100 -70.5 168t-179.5 68q-85 0 -157 -47t-103 -126q-25 -61 -25 -250v-990h-142z" />
<glyph unicode="&#xe0;" horiz-adv-x="1374" d="M104 628q0 228 151 396q167 184 420 184t420 -183q154 -167 154 -397q2 -568 0 -577h-149v249q-117 -218 -425 -244q-252 0 -411.5 171.5t-159.5 400.5zM248 626q0 -119 64.5 -229t218.5 -186q386 -86 549 351q9 140 -30 268q-28 58 -77 110q-123 130 -298 130t-301 -130 t-126 -314zM426 1694h217l220 -310h-139z" />
<glyph unicode="&#xe1;" horiz-adv-x="1371" d="M104 628q0 228 151 396q167 184 420 184t420 -183q154 -167 154 -397q2 -568 0 -577h-149v249q-117 -218 -425 -244q-252 0 -411.5 171.5t-159.5 400.5zM248 626q0 -119 64.5 -229t218.5 -186q386 -86 549 351q9 140 -30 268q-28 58 -77 110q-123 130 -298 130t-301 -130 t-126 -314zM553 1384l220 310h217l-297 -310h-140z" />
<glyph unicode="&#xe2;" horiz-adv-x="1371" d="M104 628q0 228 151 396q167 184 420 184t420 -183q154 -167 154 -397q2 -568 0 -577h-149v249q-117 -218 -425 -244q-252 0 -411.5 171.5t-159.5 400.5zM248 626q0 -119 64.5 -229t218.5 -186q386 -86 549 351q9 140 -30 268q-28 58 -77 110q-123 130 -298 130t-301 -130 t-126 -314zM339 1378l298 259h141l291 -259h-181l-177 154l-185 -154h-187z" />
<glyph unicode="&#xe3;" horiz-adv-x="1371" d="M104 628q0 228 151 396q167 184 420 184t420 -183q154 -167 154 -397q2 -568 0 -577h-149v249q-117 -218 -425 -244q-252 0 -411.5 171.5t-159.5 400.5zM248 626q0 -119 64.5 -229t218.5 -186q386 -86 549 351q9 140 -30 268q-28 58 -77 110q-123 130 -298 130t-301 -130 t-126 -314zM335 1516q92 97 227 97q65 0 155 -39q85 -40 134 -40q55 0 152 53l71 -97q-73 -53 -123 -71t-105 -18q-72 0 -149 37q-66 32 -84 37q-24 7 -52 7q-35 0 -67 -12.5t-92 -56.5z" />
<glyph unicode="&#xe4;" horiz-adv-x="1377" d="M104 628q0 228 151 396q167 184 420 184t420 -183q154 -167 154 -397q2 -568 0 -577h-149v249q-117 -218 -425 -244q-252 0 -411.5 171.5t-159.5 400.5zM248 626q0 -119 64.5 -229t218.5 -186q386 -86 549 351q9 140 -30 268q-28 58 -77 110q-123 130 -298 130t-301 -130 t-126 -314zM383 1497q0 48 34 82t82 34t83 -34t35 -82q0 -49 -35 -83.5t-83 -34.5t-82 34.5t-34 83.5zM793 1497q0 48 34.5 82t83.5 34q48 0 82 -34t34 -82q0 -49 -34 -83.5t-82 -34.5q-49 0 -83.5 34.5t-34.5 83.5z" />
<glyph unicode="&#xe5;" horiz-adv-x="1371" d="M104 628q0 228 151 396q167 184 420 184t420 -183q154 -167 154 -397q2 -568 0 -577h-149v249q-117 -218 -425 -244q-252 0 -411.5 171.5t-159.5 400.5zM248 626q0 -119 64.5 -229t218.5 -186q386 -86 549 351q9 140 -30 268q-28 58 -77 110q-123 130 -298 130t-301 -130 t-126 -314zM490 1572q0 89 63 152t150 63q89 0 152 -63t63 -152q0 -88 -62.5 -151t-152.5 -63q-87 0 -150 63t-63 151zM592 1575q0 -46 32.5 -78.5t78.5 -32.5q45 0 77.5 32.5t32.5 78.5q0 45 -32.5 78t-77.5 33q-46 0 -78.5 -33t-32.5 -78z" />
<glyph unicode="&#xe6;" horiz-adv-x="2387" d="M104 628q54 512 492 563q46 14 99 9q310 -20 483 -291q74 132 210 218t306 81q249 0 410.5 -166t161.5 -425h-988q5 -116 63 -220t154 -158.5t214 -54.5q126 0 225.5 62t173.5 197l122 -60q-75 -157 -215.5 -242t-316.5 -85q-155 0 -277 68q-52 38 -88 68q-64 56 -86 104 q0 -142 2 -245h-149v249q-117 -218 -425 -244q-252 0 -411.5 171.5t-159.5 400.5zM248 626q0 -119 57.5 -222.5t155.5 -159t214 -55.5q375 38 421 437q0 184 -123 314t-298 130t-301 -130t-126 -314zM1286 740h822q-27 115 -80.5 182t-142.5 109t-182 42q-96 0 -186 -42.5 t-147.5 -114t-83.5 -176.5z" />
<glyph unicode="&#xe7;" horiz-adv-x="1367" d="M105 622q0 160 80.5 296.5t220 213t313.5 76.5q108 0 209.5 -33t172.5 -86.5t120 -136.5l-112 -70q-145 194 -396 194q-201 0 -333.5 -129t-132.5 -314q0 -120 61 -226.5t167 -164.5t238 -58q243 0 396 192l112 -73q-79 -118 -211.5 -182.5t-302.5 -64.5 q-259 0 -430.5 165t-171.5 401zM473 -269l22 69q65 -20 121 -20q76 0 106 18.5t30 47.5q0 17 -16.5 30t-46.5 13q-24 0 -69 -9l26 203h89l-17 -118q23 2 39 2q49 0 82 -30.5t33 -76.5q0 -67 -60 -113t-171 -46q-90 0 -168 30z" />
<glyph unicode="&#xe8;" horiz-adv-x="1383" d="M104 628q0 209 128 372q162 208 435 208q279 0 447 -213q119 -150 120 -374h-985q4 -192 122 -314.5t291 -122.5q84 0 163 29.5t134.5 77.5t120.5 156l118 -63q-57 -115 -134 -185t-173 -106.5t-217 -36.5q-268 0 -419 175.5t-151 396.5zM264 742h816q-28 113 -82 180.5 t-143 109t-187 41.5q-161 0 -277 -104q-84 -76 -127 -227zM392 1694h216l220 -310h-138z" />
<glyph unicode="&#xe9;" horiz-adv-x="1376" d="M104 628q0 209 128 372q162 208 435 208q279 0 447 -213q119 -150 120 -374h-985q4 -192 122 -314.5t291 -122.5q84 0 163 29.5t134.5 77.5t120.5 156l118 -63q-57 -115 -134 -185t-173 -106.5t-217 -36.5q-268 0 -419 175.5t-151 396.5zM264 742h816q-28 113 -82 180.5 t-143 109t-187 41.5q-161 0 -277 -104q-84 -76 -127 -227zM520 1384l220 310h217l-297 -310h-140z" />
<glyph unicode="&#xea;" horiz-adv-x="1383" d="M104 628q0 209 128 372q162 208 435 208q279 0 447 -213q119 -150 120 -374h-985q4 -192 122 -314.5t291 -122.5q84 0 163 29.5t134.5 77.5t120.5 156l118 -63q-57 -115 -134 -185t-173 -106.5t-217 -36.5q-268 0 -419 175.5t-151 396.5zM264 742h816q-28 113 -82 180.5 t-143 109t-187 41.5q-161 0 -277 -104q-84 -76 -127 -227zM304 1378l300 259h140l292 -259h-181l-177 154l-186 -154h-188z" />
<glyph unicode="&#xeb;" horiz-adv-x="1369" d="M104 628q0 209 128 372q162 208 435 208q279 0 447 -213q119 -150 120 -374h-985q4 -192 122 -314.5t291 -122.5q84 0 163 29.5t134.5 77.5t120.5 156l118 -63q-57 -115 -134 -185t-173 -106.5t-217 -36.5q-268 0 -419 175.5t-151 396.5zM264 742h816q-28 113 -82 180.5 t-143 109t-187 41.5q-161 0 -277 -104q-84 -76 -127 -227zM348 1497q0 48 34 82t83 34q48 0 82.5 -34t34.5 -82q0 -49 -34.5 -83.5t-82.5 -34.5q-49 0 -83 34.5t-34 83.5zM759 1497q0 48 34.5 82t83.5 34q48 0 82 -34t34 -82q0 -49 -34 -83.5t-82 -34.5q-49 0 -83.5 34.5 t-34.5 83.5z" />
<glyph unicode="&#xec;" horiz-adv-x="483" d="M-71 1694h217l220 -310h-139zM138 83v1097h141v-1097h-141z" />
<glyph unicode="&#xed;" horiz-adv-x="483" d="M55 1384l220 310h217l-298 -310h-139zM135 83v1097h142v-1097h-142z" />
<glyph unicode="&#xee;" horiz-adv-x="532" d="M-158 1378l299 259h140l293 -259h-181l-178 154l-185 -154h-188zM137 83v1097h143v-1097h-143z" />
<glyph unicode="&#xef;" horiz-adv-x="518" d="M-115 1497q0 48 35 82t83 34t82 -34t34 -82q0 -49 -34 -83.5t-82 -34.5t-83 34.5t-35 83.5zM137 83v1097h142v-1097h-142zM297 1497q0 48 34 82t82 34t83 -34t35 -82q0 -49 -35 -83.5t-83 -34.5t-82 34.5t-34 83.5z" />
<glyph unicode="&#xf0;" horiz-adv-x="1350" d="M105 635q0 239 164 406t388 167q118 0 253 -65q-95 128 -215 236l-219 -90l-53 107l176 73q-96 81 -166 135h198q52 -38 103 -80l165 69l53 -108l-119 -47q220 -211 318 -409.5t98 -374.5q0 -166 -76 -305.5t-208.5 -216t-294.5 -76.5q-234 0 -399.5 168t-165.5 411z M247 638q0 -191 126 -319.5t302 -128.5q115 0 215.5 58t156.5 159.5t56 227.5t-54 227t-151 156t-213 55q-158 0 -284 -98q-154 -123 -154 -337z" />
<glyph unicode="&#xf1;" horiz-adv-x="1221" d="M156 83v1097h142v-197q84 113 187 169t223 56q124 0 219 -62.5t140 -168t45 -330.5v-564h-140v523q0 190 -16 254q-25 109 -94.5 163.5t-181.5 54.5q-128 0 -229.5 -84.5t-133.5 -209.5q-19 -82 -19 -299v-402h-142zM259 1516q91 97 227 97q64 0 154 -39q86 -40 135 -40 q55 0 153 53l69 -97q-72 -53 -121.5 -71t-105.5 -18q-73 0 -150 37q-64 32 -84 37q-24 7 -51 7q-36 0 -68 -12.5t-92 -56.5z" />
<glyph unicode="&#xf2;" horiz-adv-x="1363" d="M104 628q0 228 151 396q167 184 420 184t420 -183q151 -168 151 -397t-160 -400.5t-411 -171.5q-252 0 -411.5 171.5t-159.5 400.5zM248 626q0 -119 57.5 -222.5t155.5 -159t214 -55.5q118 0 215.5 55.5t154.5 159t57 222.5q0 184 -126 314t-301 130t-301 -130t-126 -314 zM397 1694h217l220 -310h-140z" />
<glyph unicode="&#xf3;" horiz-adv-x="1348" d="M104 628q0 228 151 396q167 184 420 184t420 -183q151 -168 151 -397t-160 -400.5t-411 -171.5q-252 0 -411.5 171.5t-159.5 400.5zM248 626q0 -119 57.5 -222.5t155.5 -159t214 -55.5q118 0 215.5 55.5t154.5 159t57 222.5q0 184 -126 314t-301 130t-301 -130t-126 -314 zM525 1384l220 310h217l-298 -310h-139z" />
<glyph unicode="&#xf4;" horiz-adv-x="1371" d="M104 628q0 228 151 396q167 184 420 184t420 -183q151 -168 151 -397t-160 -400.5t-411 -171.5q-252 0 -411.5 171.5t-159.5 400.5zM248 626q0 -119 57.5 -222.5t155.5 -159t214 -55.5q118 0 215.5 55.5t154.5 159t57 222.5q0 184 -126 314t-301 130t-301 -130t-126 -314 zM309 1378l300 259h141l291 -259h-181l-178 154l-184 -154h-189z" />
<glyph unicode="&#xf5;" horiz-adv-x="1393" d="M104 628q0 228 151 396q167 184 420 184t420 -183q151 -168 151 -397t-160 -400.5t-411 -171.5q-252 0 -411.5 171.5t-159.5 400.5zM248 626q0 -119 57.5 -222.5t155.5 -159t214 -55.5q118 0 215.5 55.5t154.5 159t57 222.5q0 184 -126 314t-301 130t-301 -130t-126 -314 zM306 1516q91 97 226 97q65 0 155 -39q85 -40 135 -40q55 0 152 53l71 -97q-73 -53 -123 -71t-105 -18q-73 0 -149 37q-66 32 -84 37q-24 7 -53 7q-35 0 -66.5 -12.5t-92.5 -56.5z" />
<glyph unicode="&#xf6;" horiz-adv-x="1348" d="M104 628q0 228 151 396q167 184 420 184t420 -183q151 -168 151 -397t-160 -400.5t-411 -171.5q-252 0 -411.5 171.5t-159.5 400.5zM248 626q0 -119 57.5 -222.5t155.5 -159t214 -55.5q118 0 215.5 55.5t154.5 159t57 222.5q0 184 -126 314t-301 130t-301 -130t-126 -314 zM354 1497q0 48 34 82t82 34t82 -34t34 -82q0 -49 -34 -83.5t-82 -34.5t-82 34.5t-34 83.5zM764 1497q0 48 34 82t84 34q48 0 82 -34t34 -82q0 -49 -34 -83.5t-82 -34.5q-50 0 -84 34.5t-34 83.5z" />
<glyph unicode="&#xf7;" horiz-adv-x="1132" d="M56 755v138h1020v-138h-1020zM464 346v206h203v-206h-203zM464 1096v204h203v-204h-203z" />
<glyph unicode="&#xf8;" horiz-adv-x="1345" d="M102 628q0 230 159 405t411 175q203 0 354 -120l118 138l92 -75l-126 -147q134 -162 134 -376q0 -229 -160 -400.5t-411 -171.5q-164 0 -301 81l-116 -137l-90 74l115 135q-179 173 -179 419zM246 626q0 -87 33 -170.5t91 -141.5l564 663q-119 93 -261 93 q-111 0 -210 -59t-158 -163.5t-59 -221.5zM462 243q103 -54 210 -54q118 0 216 55.5t155 159t57 220.5q0 146 -86 268z" />
<glyph unicode="&#xf9;" horiz-adv-x="1229" d="M138 652v528h142v-512q0 -188 20 -258q30 -101 115 -159.5t204 -58.5q118 0 200 57t113 150q22 63 22 269v512h144v-539q0 -227 -53.5 -341.5t-159.5 -179t-266 -64.5q-161 0 -268 64.5t-160 181t-53 350.5zM347 1694h217l220 -310h-140z" />
<glyph unicode="&#xfa;" horiz-adv-x="1244" d="M138 652v528h142v-512q0 -188 20 -258q30 -101 115 -159.5t204 -58.5q118 0 200 57t113 150q22 63 22 269v512h144v-539q0 -227 -53.5 -341.5t-159.5 -179t-266 -64.5q-161 0 -268 64.5t-160 181t-53 350.5zM475 1384l220 310h217l-298 -310h-139z" />
<glyph unicode="&#xfb;" horiz-adv-x="1229" d="M138 652v528h142v-512q0 -188 20 -258q30 -101 115 -159.5t204 -58.5q118 0 200 57t113 150q22 63 22 269v512h144v-539q0 -227 -53.5 -341.5t-159.5 -179t-266 -64.5q-161 0 -268 64.5t-160 181t-53 350.5zM260 1378l299 259h141l291 -259h-181l-178 154l-184 -154h-188 z" />
<glyph unicode="&#xfc;" horiz-adv-x="1229" d="M138 652v528h142v-512q0 -188 20 -258q30 -101 115 -159.5t204 -58.5q118 0 200 57t113 150q22 63 22 269v512h144v-539q0 -227 -53.5 -341.5t-159.5 -179t-266 -64.5q-161 0 -268 64.5t-160 181t-53 350.5zM304 1497q0 48 34 82t82 34q49 0 83.5 -34t34.5 -82 q0 -49 -34.5 -83.5t-83.5 -34.5q-48 0 -82 34.5t-34 83.5zM714 1497q0 48 35 82t83 34t82 -34t34 -82q0 -49 -34 -83.5t-82 -34.5t-83 34.5t-35 83.5z" />
<glyph unicode="&#xfd;" horiz-adv-x="1169" d="M39 1180h149l377 -845l366 845h151l-655 -1497h-149l211 483zM403 1384l219 310h217l-297 -310h-139z" />
<glyph unicode="&#xfe;" horiz-adv-x="1405" d="M158 -317v1921h140v-626q83 116 192.5 173t243.5 57q234 0 400 -168t166 -405q0 -242 -165 -410.5t-397 -168.5q-131 0 -241 54t-199 162v-589h-140zM288 626q0 -125 56 -225.5t160 -158.5t220 -58q114 0 214.5 59t160 165t59.5 221q0 118 -59 222.5t-158.5 162.5 t-218.5 58q-182 0 -308 -128t-126 -318z" />
<glyph unicode="&#xff;" horiz-adv-x="1176" d="M39 1180h149l377 -845l366 845h151l-655 -1497h-149l211 483zM243 1497q0 48 34 82t82 34t82.5 -34t34.5 -82q0 -49 -34.5 -83.5t-82.5 -34.5t-82 34.5t-34 83.5zM653 1497q0 48 34.5 82t83.5 34q48 0 82 -34t34 -82q0 -49 -34 -83.5t-82 -34.5q-49 0 -83.5 34.5 t-34.5 83.5z" />
<glyph unicode="&#x152;" horiz-adv-x="2463" d="M114 818q0 208 103 392t290 289t395 105q200 0 381 -105q145 -83 251 -221v288h844v-146h-694v-461h694v-146h-694v-583h694v-147h-844v287q-100 -126 -190 -191t-201 -99t-243 -34q-372 0 -602 275q-184 219 -184 497zM275 830q0 -268 184 -454t451 -186 q256 0 438.5 186t182.5 450q0 173 -83.5 317t-234.5 230.5t-315 86.5q-250 0 -436.5 -188.5t-186.5 -441.5z" />
<glyph unicode="&#x153;" horiz-adv-x="2345" d="M112 638q0 272 208 440q160 130 362 130q164 0 302 -88q100 -64 190 -202q85 134 180 197q137 93 316 93q235 0 398.5 -163t163.5 -391l-1 -36h-984q15 -224 141 -328.5t288 -104.5q130 0 236 67.5t164 194.5l120 -61q-94 -174 -222.5 -252t-307.5 -78q-98 0 -189.5 30.5 t-156 81t-146.5 165.5q-91 -139 -214.5 -208t-277.5 -69q-238 0 -404 169t-166 413zM252 629q0 -119 57 -221.5t161 -162.5t216 -60q110 0 211 59t155.5 158.5t54.5 221.5q0 190 -125 319t-306 129q-112 0 -210 -58t-156 -162.5t-58 -222.5zM1260 740h816 q-40 159 -149.5 245t-255.5 86q-159 0 -277 -101q-93 -77 -134 -230z" />
<glyph unicode="&#x178;" horiz-adv-x="1185" d="M63 1494h172l379 -582l372 582h171l-469 -736v-675h-146v675zM297 1670q0 46 34 78.5t84 32.5q48 0 82 -32.5t34 -78.5t-34 -78.5t-82 -32.5q-50 0 -84 32.5t-34 78.5zM709 1670q0 46 34 78.5t82 32.5q49 0 83.5 -32.5t34.5 -78.5t-34.5 -78.5t-83.5 -32.5 q-48 0 -82 32.5t-34 78.5z" />
<glyph unicode="&#x2c6;" horiz-adv-x="1034" d="M151 1378l299 259h140l293 -259h-181l-178 154l-186 -154h-187z" />
<glyph unicode="&#x2dc;" horiz-adv-x="904" d="M83 1516q91 97 227 97q65 0 155 -39q85 -40 134 -40q55 0 152 53l71 -97q-73 -53 -123 -71t-105 -18q-73 0 -149 37q-66 32 -84 37q-24 7 -52 7q-35 0 -67 -12.5t-93 -56.5z" />
<glyph unicode="&#x2000;" horiz-adv-x="912" />
<glyph unicode="&#x2001;" horiz-adv-x="1824" />
<glyph unicode="&#x2002;" horiz-adv-x="912" />
<glyph unicode="&#x2003;" horiz-adv-x="1824" />
<glyph unicode="&#x2004;" horiz-adv-x="608" />
<glyph unicode="&#x2005;" horiz-adv-x="456" />
<glyph unicode="&#x2006;" horiz-adv-x="304" />
<glyph unicode="&#x2007;" horiz-adv-x="304" />
<glyph unicode="&#x2008;" horiz-adv-x="228" />
<glyph unicode="&#x2009;" horiz-adv-x="364" />
<glyph unicode="&#x200a;" horiz-adv-x="101" />
<glyph unicode="&#x2010;" horiz-adv-x="987" d="M199 712v124h554v-124h-554z" />
<glyph unicode="&#x2011;" horiz-adv-x="987" d="M199 712v124h554v-124h-554z" />
<glyph unicode="&#x2012;" horiz-adv-x="987" d="M199 712v124h554v-124h-554z" />
<glyph unicode="&#x2013;" horiz-adv-x="1646" d="M199 527v128h1248v-128h-1248z" />
<glyph unicode="&#x2014;" horiz-adv-x="2201" d="M200 61v125h1802v-125h-1802z" />
<glyph unicode="&#x2018;" horiz-adv-x="720" d="M286 1050v173q0 130 17.5 204.5t67.5 176.5l79 -45q-38 -77 -51 -120t-21 -111h90v-278h-182z" />
<glyph unicode="&#x2019;" horiz-adv-x="720" d="M252 1326v278h182v-174q0 -130 -17 -204.5t-69 -175.5l-78 45q38 75 51.5 119t19.5 112h-89z" />
<glyph unicode="&#x201a;" horiz-adv-x="726" d="M255 83v277h182v-172q0 -131 -17 -204.5t-69 -175.5l-78 43q38 77 51.5 120.5t19.5 111.5h-89z" />
<glyph unicode="&#x201c;" horiz-adv-x="1033" d="M204 1050v173q0 130 17.5 204.5t67.5 176.5l79 -45q-38 -77 -51 -120t-21 -111h90v-278h-182zM653 1050v173q0 130 16.5 204.5t68.5 176.5l79 -45q-38 -77 -51.5 -120t-20.5 -111h90v-278h-182z" />
<glyph unicode="&#x201d;" horiz-adv-x="996" d="M181 1326v278h182v-174q0 -130 -17 -204.5t-69 -175.5l-78 45q38 75 51.5 119t19.5 112h-89zM630 1326v278h182v-174q0 -130 -18 -204.5t-68 -175.5l-78 45q38 75 51.5 119t19.5 112h-89z" />
<glyph unicode="&#x201e;" horiz-adv-x="1033" d="M198 83v277h182v-172q0 -131 -17 -204.5t-69 -175.5l-78 44q38 77 51.5 120t19.5 111h-89zM647 83v277h182v-172q0 -131 -18 -204.5t-68 -175.5l-78 44q38 77 51.5 120t19.5 111h-89z" />
<glyph unicode="&#x2022;" horiz-adv-x="1246" d="M328 594q0 128 90.5 219t219.5 91q128 0 218.5 -91t90.5 -219q0 -129 -90.5 -219.5t-218.5 -90.5q-129 0 -219.5 90.5t-90.5 219.5z" />
<glyph unicode="&#x2026;" horiz-adv-x="2061" d="M218 180q0 52 36 88.5t88 36.5q51 0 87.5 -36.5t36.5 -88.5q0 -51 -36.5 -87.5t-87.5 -36.5q-52 0 -88 36.5t-36 87.5zM907 180q0 52 36 88.5t87 36.5q52 0 88 -36.5t36 -88.5q0 -51 -36 -87.5t-88 -36.5q-51 0 -87 36.5t-36 87.5zM1594 180q0 52 37 88.5t88 36.5 t87.5 -36.5t36.5 -88.5q0 -51 -36.5 -87.5t-87.5 -36.5t-88 36.5t-37 87.5z" />
<glyph unicode="&#x202f;" horiz-adv-x="364" />
<glyph unicode="&#x2039;" horiz-adv-x="517" d="M75 629l223 551h150l-225 -551l225 -546h-150z" />
<glyph unicode="&#x203a;" horiz-adv-x="517" d="M70 83l224 550l-224 547h149l224 -547l-224 -550h-149z" />
<glyph unicode="&#x205f;" horiz-adv-x="456" />
<glyph unicode="&#x20ac;" horiz-adv-x="1144" d="M47 603l35 139h89q-4 56 -4 90q0 32 4 85h-124l37 139h114q78 252 287 399t480 147q66 0 162 -14l-37 -142q-59 12 -121 12q-201 0 -366 -106.5t-240 -295.5h644l-37 -139h-642q-7 -47 -7 -97q0 -30 6 -78h595l-36 -139h-529q69 -196 237 -307.5t382 -111.5q66 0 140 17 v-141q-65 -12 -151 -12q-283 0 -489 147t-280 408h-149z" />
<glyph unicode="&#x2122;" horiz-adv-x="2063" d="M12 1470v138h764v-138h-307v-730h-151v730h-306zM943 740v868h245l270 -602l283 602h240v-868h-151v715l-323 -715h-99l-315 715v-715h-150z" />
<glyph unicode="&#x25fc;" horiz-adv-x="1155" d="M0 0v1155h1155v-1155h-1155z" />
<glyph unicode="&#xfb01;" horiz-adv-x="1003" d="M84 1056v124h143v48q0 158 36 234.5t111 122.5t180 46q134 0 218 -76t92 -197h-143q-29 139 -168 139q-62 0 -104 -27.5t-60 -74t-18 -167.5v-48h227v-124h-227v-973h-144v973h-143zM721 83v1097h143v-1097h-143z" />
<glyph unicode="&#xfb02;" horiz-adv-x="999" d="M92 1055v125h144v36q0 170 33.5 244.5t110 122.5t175.5 48q101 0 177 -49t107.5 -123t31.5 -260v-1116h-144v1125q0 139 -15.5 186.5t-58.5 76.5t-99 29t-99.5 -30.5t-61.5 -85.5q-12 -41 -12 -204h226v-125h-226v-972h-145v972h-144z" />
</font>
</defs>
</svg>
